<svg id="Layer_1"  data-name="Layer 1" xmlns="http://www.w3.org/2000/svg" viewBox="0 0 24 24">
  <defs>
    <style>.cls-1{fill:#3867a4;}</style>
  </defs>
  <title>Instagram-logo-2016</title>
  <g id="Новый_символ_14" data-name="Новый символ 14" fill="white" fill-rule="evenodd">
    <path class="cls-1" d="M20.9,2H3.1A1.1,1.1,0,0,0,2,3.1V20.9A1.1,1.1,0,0,0,3.1,22h9.58V14.27H10.09v-3h2.59V9a3.64,3.64,0,0,1,3.89-4,20.19,20.19,0,0,1,2.32.12v2.7H17.3c-1.25,0-1.49.6-1.49,1.47v1.93h3l-.39,3H15.81V22H20.9A1.1,1.1,0,0,0,22,20.9V3.1A1.1,1.1,0,0,0,20.9,2Z"/>
  </g></svg>
