<svg id="Layer_1" data-name="Layer 1" xmlns="http://www.w3.org/2000/svg" xmlns:xlink="http://www.w3.org/1999/xlink" viewBox="0 0 24 24"><defs><style>.cls-1{fill:url(#Безымянный_градиент_22);}</style><linearGradient id="Безымянный_градиент_22" x1="4.1" y1="21.41" x2="19.9" y2="2.59" gradientUnits="userSpaceOnUse"><stop offset="0" stop-color="#ffd73f"/><stop offset="0.29" stop-color="#f15c3c"/><stop offset="0.62" stop-color="#c32f87"/><stop offset="0.9" stop-color="#6754a3"/><stop offset="0.99" stop-color="#4c5fab"/></linearGradient></defs><title>Instagram-logo-2016</title><path class="cls-1" d="M14.5,12A2.5,2.5,0,1,1,12,9.5,2.5,2.5,0,0,1,14.5,12Zm3.4-3.18v6.4a2.9,2.9,0,0,1-2.9,2.9H9a2.9,2.9,0,0,1-2.9-2.9V8.82A2.9,2.9,0,0,1,9,5.92h6A2.9,2.9,0,0,1,17.9,8.82ZM16.3,12A4.3,4.3,0,1,0,12,16.3,4.31,4.31,0,0,0,16.3,12ZM17,7.92a.93.93,0,1,0-.93.93A.93.93,0,0,0,17,7.92Zm5-1.53V17.61A4.36,4.36,0,0,1,17.65,22H6.35A4.36,4.36,0,0,1,2,17.61V6.39A4.36,4.36,0,0,1,6.35,2h11.3A4.36,4.36,0,0,1,22,6.39ZM19.53,8.82A4.53,4.53,0,0,0,15,4.29H9A4.53,4.53,0,0,0,4.47,8.82v6.4A4.53,4.53,0,0,0,9,19.75h6a4.53,4.53,0,0,0,4.53-4.53Z"/></svg>