<?xml version="1.0" encoding="UTF-8"?>
<svg width="20px" height="20px" viewBox="0 0 20 20" version="1.1" xmlns="http://www.w3.org/2000/svg" xmlns:xlink="http://www.w3.org/1999/xlink">
    <!-- Generator: Sketch 57 (83077) - https://sketch.com -->
    <title>ic_twitter</title>
    <desc>Created with Sketch.</desc>
    <g id="ic_twitter" stroke="none" stroke-width="1" fill="white" fill-rule="evenodd">
        <path d="M19.9577167,3.92389006 C19.2219873,4.24947146 18.435518,4.46934461 17.6067653,4.57082452 C18.4524313,4.06342495 19.1035941,3.26004228 19.4080338,2.30443975 C18.6173362,2.77378436 17.7420719,3.11627907 16.807611,3.29809725 C16.0591966,2.49894292 14.9936575,2 13.8181818,2 C11.5560254,2 9.72515856,3.83509514 9.72515856,6.09725159 C9.72515856,6.41860465 9.7589852,6.73150106 9.83086681,7.03171247 C6.42706131,6.86257928 3.40803383,5.23044397 1.39112051,2.74841438 C1.04016913,3.35306554 0.837209302,4.05919662 0.837209302,4.80761099 C0.837209302,6.22832981 1.56448203,7.48414376 2.66384778,8.21987315 C1.98731501,8.20295983 1.35306554,8.01691332 0.803382664,7.70824524 L0.803382664,7.7589852 C0.803382664,9.74630021 2.21564482,11.3995772 4.08879493,11.7758985 C3.74630021,11.8689218 3.38266385,11.9196617 3.01057082,11.9196617 C2.74841438,11.9196617 2.49048626,11.8942918 2.2410148,11.8435518 C2.76109937,13.4714588 4.27484144,14.6553911 6.06765328,14.6892178 C4.66807611,15.7885835 2.90063425,16.4439746 0.980972516,16.4439746 C0.651162791,16.4439746 0.325581395,16.422833 0.00422832981,16.384778 C1.80972516,17.5602537 3.96194503,18.2367865 6.27061311,18.2367865 C13.8097252,18.2367865 17.9281184,11.9915433 17.9281184,6.57505285 C17.9281184,6.397463 17.9238901,6.21987315 17.9154334,6.04651163 C18.7145877,5.46723044 19.4080338,4.74841438 19.9577167,3.92389006 Z" id="Path" fill="#00ACED" fill-rule="nonzero"></path>
    </g>
</svg>
