<svg id="Layer_1" data-name="Layer 1" xmlns="http://www.w3.org/2000/svg" viewBox="0 0 24 24"><defs><style>.cls-1{fill:#5077a4;}</style></defs><title>Instagram-logo-2016</title><g id="Новый_символ_14" data-name="Новый символ 14"><path class="cls-1" d="M18.92,2H5.08A3.08,3.08,0,0,0,2,5.08V18.92A3.08,3.08,0,0,0,5.08,22H18.92A3.08,3.08,0,0,0,22,18.92V5.08A3.08,3.08,0,0,0,18.92,2Zm-.73,14-1.83,0a1.3,1.3,0,0,1-.91-.27c-.68-.47-1.32-1.69-1.83-1.53s-.49,1.25-.49,1.25a.59.59,0,0,1-.11.37.7.7,0,0,1-.37.16h-.82a4.69,4.69,0,0,1-3.39-1.54A22.57,22.57,0,0,1,5.17,9.07s-.09-.24,0-.35a.66.66,0,0,1,.4-.14h2a.87.87,0,0,1,.32.13A.6.6,0,0,1,8,8.93a12.25,12.25,0,0,0,.73,1.52c.82,1.41,1.2,1.73,1.47,1.57s.28-2,.28-2a1.89,1.89,0,0,0-.2-.94.86.86,0,0,0-.6-.3c-.11,0,.07-.28.3-.39a4.44,4.44,0,0,1,1.71-.18,3.81,3.81,0,0,1,1,.1c.67.16.44.79.44,2.3,0,.48-.09,1.16.26,1.39.15.09.52,0,1.44-1.55a12.84,12.84,0,0,0,.76-1.6.45.45,0,0,1,.18-.22A.44.44,0,0,1,16,8.59h2.06s.61-.08.72.21-.24,1-1.08,2.09c-1.38,1.84-1.53,1.67-.38,2.73a6,6,0,0,1,1.35,1.57C19.15,15.94,18.19,16,18.19,16Z"/></g></svg>